<?xml version="1.0" encoding="UTF-8" standalone="no"?>
<svg
   height="16"
   viewBox="0 0 16 16"
   width="16"
   version="1.1"
   id="svg10"
   sodipodi:docname="filter.svg"
   inkscape:version="1.1.1 (3bf5ae0d25, 2021-09-20)"
   xmlns:inkscape="http://www.inkscape.org/namespaces/inkscape"
   xmlns:sodipodi="http://sodipodi.sourceforge.net/DTD/sodipodi-0.dtd"
   xmlns="http://www.w3.org/2000/svg"
   xmlns:svg="http://www.w3.org/2000/svg">
  <defs
     id="defs14" />
  <sodipodi:namedview
     id="namedview12"
     pagecolor="#ffffff"
     bordercolor="#666666"
     borderopacity="1.0"
     inkscape:pageshadow="2"
     inkscape:pageopacity="0.0"
     inkscape:pagecheckerboard="0"
     showgrid="true"
     inkscape:snap-global="true"
     inkscape:zoom="1"
     inkscape:cx="8.5"
     inkscape:cy="7.5"
     inkscape:window-width="1920"
     inkscape:window-height="1137"
     inkscape:window-x="-8"
     inkscape:window-y="-8"
     inkscape:window-maximized="1"
     inkscape:current-layer="layer2"
     inkscape:object-nodes="true"
     inkscape:snap-bbox="true"
     inkscape:bbox-paths="true"
     inkscape:snap-nodes="false">
    <inkscape:grid
       type="xygrid"
       id="grid831" />
  </sodipodi:namedview>
  <g
     inkscape:groupmode="layer"
     id="layer2"
     inkscape:label="Icon">
    <g
       id="g2913"
       transform="matrix(0.4375,0,0,0.4375,-2.5,-2.5000001)"
       style="stroke-width:24.381;fill:#e0e0e0;fill-opacity:1">
      <path
         d="M 13,17.142029 V 9 C 13,8.4472656 12.552246,8 12,8 11.447754,8 11,8.4472656 11,9 v 8.142029 C 9.2797241,17.589172 8,19.141296 8,21 c 0,1.858704 1.2797241,3.410828 3,3.857971 V 39 c 0,0.552734 0.447754,1 1,1 0.552246,0 1,-0.447266 1,-1 V 24.857971 C 14.720276,24.410828 16,22.858704 16,21 16,19.141296 14.720276,17.589172 13,17.142029 Z M 12,23 c -1.103027,0 -2,-0.897461 -2,-2 0,-1.102539 0.896973,-2 2,-2 1.103027,0 2,0.897461 2,2 0,1.102539 -0.896973,2 -2,2 z"
         id="path2907"
         style="stroke-width:24.381;fill:#e0e0e0;fill-opacity:1" />
      <path
         d="M 25,24.142029 V 9 C 25,8.4472656 24.552246,8 24,8 23.447754,8 23,8.4472656 23,9 V 24.142029 C 21.279724,24.589172 20,26.141296 20,28 c 0,1.858704 1.279724,3.410828 3,3.857971 V 39 c 0,0.552734 0.447754,1 1,1 0.552246,0 1,-0.447266 1,-1 V 31.857971 C 26.720276,31.410828 28,29.858704 28,28 28,26.141296 26.720276,24.589172 25,24.142029 Z M 24,30 c -1.103027,0 -2,-0.897461 -2,-2 0,-1.102539 0.896973,-2 2,-2 1.103027,0 2,0.897461 2,2 0,1.102539 -0.896973,2 -2,2 z"
         id="path2909"
         style="stroke-width:24.381;fill:#e0e0e0;fill-opacity:1" />
      <path
         d="m 40,21 c 0,-1.858704 -1.279724,-3.410828 -3,-3.857971 V 9 C 37,8.4472656 36.552246,8 36,8 35.447754,8 35,8.4472656 35,9 v 8.142029 C 33.279724,17.589172 32,19.141296 32,21 c 0,1.858704 1.279724,3.410828 3,3.857971 V 39 c 0,0.552734 0.447754,1 1,1 0.552246,0 1,-0.447266 1,-1 V 24.857971 C 38.720276,24.410828 40,22.858704 40,21 Z m -4,2 c -1.103027,0 -2,-0.897461 -2,-2 0,-1.102539 0.896973,-2 2,-2 1.103027,0 2,0.897461 2,2 0,1.102539 -0.896973,2 -2,2 z"
         id="path2911"
         style="stroke-width:24.381;fill:#e0e0e0;fill-opacity:1" />
    </g>
  </g>
</svg>
