<?xml version="1.0" encoding="UTF-8" standalone="no"?>
<svg
   height="16"
   viewBox="0 0 16 16"
   width="16"
   version="1.1"
   id="svg10"
   sodipodi:docname="remove.svg"
   inkscape:version="1.1.1 (3bf5ae0d25, 2021-09-20)"
   xmlns:inkscape="http://www.inkscape.org/namespaces/inkscape"
   xmlns:sodipodi="http://sodipodi.sourceforge.net/DTD/sodipodi-0.dtd"
   xmlns="http://www.w3.org/2000/svg"
   xmlns:svg="http://www.w3.org/2000/svg">
  <defs
     id="defs14" />
  <sodipodi:namedview
     id="namedview12"
     pagecolor="#ffffff"
     bordercolor="#666666"
     borderopacity="1.0"
     inkscape:pageshadow="2"
     inkscape:pageopacity="0.0"
     inkscape:pagecheckerboard="0"
     showgrid="true"
     inkscape:snap-global="true"
     inkscape:zoom="1"
     inkscape:cx="8.5"
     inkscape:cy="7.5"
     inkscape:window-width="1920"
     inkscape:window-height="1137"
     inkscape:window-x="-8"
     inkscape:window-y="-8"
     inkscape:window-maximized="1"
     inkscape:current-layer="layer2"
     inkscape:object-nodes="true"
     inkscape:snap-bbox="true"
     inkscape:bbox-paths="false"
     inkscape:snap-nodes="false"
     inkscape:bbox-nodes="true">
    <inkscape:grid
       type="xygrid"
       id="grid831" />
  </sodipodi:namedview>
  <g
     inkscape:groupmode="layer"
     id="layer2"
     inkscape:label="Icon">
    <g
       id="g3401"
       transform="matrix(0.58333333,0,0,0.58333333,1,1)"
       style="stroke-width:36.5714;fill:#e0e0e0;fill-opacity:1">
      <g
         id="_x32_-9"
         style="stroke-width:36.5714;fill:#e0e0e0;fill-opacity:1">
        <path
           d="m 18,2 c 2.206,0 4,1.794 4,4 v 12 c 0,2.206 -1.794,4 -4,4 H 6 C 3.794,22 2,20.206 2,18 V 6 C 2,3.794 3.794,2 6,2 Z M 18,0 H 6 C 2.686,0 0,2.686 0,6 v 12 c 0,3.314 2.686,6 6,6 h 12 c 3.314,0 6,-2.686 6,-6 V 6 C 24,2.686 21.314,0 18,0 Z"
           id="path3386"
           style="stroke-width:36.5714;fill:#e0e0e0;fill-opacity:1" />
      </g>
      <g
         id="_x31_-7"
         style="stroke-width:36.5714;fill:#e0e0e0;fill-opacity:1">
        <path
           d="m 6,12 c 0,-0.552 0.447,-1 1,-1 h 10 c 0.552,0 1,0.448 1,1 0,0.552 -0.448,1 -1,1 H 7 C 6.447,13 6,12.552 6,12 Z"
           id="path3389"
           style="stroke-width:36.5714;fill:#e0e0e0;fill-opacity:1" />
      </g>
    </g>
  </g>
</svg>
