<?xml version="1.0" encoding="UTF-8" standalone="no"?>
<svg
   height="16"
   viewBox="0 0 16 16"
   width="16"
   version="1.1"
   id="svg10"
   sodipodi:docname="add.svg"
   inkscape:version="1.1.1 (3bf5ae0d25, 2021-09-20)"
   xmlns:inkscape="http://www.inkscape.org/namespaces/inkscape"
   xmlns:sodipodi="http://sodipodi.sourceforge.net/DTD/sodipodi-0.dtd"
   xmlns="http://www.w3.org/2000/svg"
   xmlns:svg="http://www.w3.org/2000/svg">
  <defs
     id="defs14" />
  <sodipodi:namedview
     id="namedview12"
     pagecolor="#ffffff"
     bordercolor="#666666"
     borderopacity="1.0"
     inkscape:pageshadow="2"
     inkscape:pageopacity="0.0"
     inkscape:pagecheckerboard="0"
     showgrid="true"
     inkscape:snap-global="true"
     inkscape:zoom="58.0625"
     inkscape:cx="9.6189451"
     inkscape:cy="8"
     inkscape:window-width="1920"
     inkscape:window-height="1137"
     inkscape:window-x="-8"
     inkscape:window-y="-8"
     inkscape:window-maximized="1"
     inkscape:current-layer="layer2"
     inkscape:object-nodes="true"
     inkscape:snap-bbox="true"
     inkscape:bbox-paths="false"
     inkscape:snap-nodes="true"
     inkscape:bbox-nodes="true">
    <inkscape:grid
       type="xygrid"
       id="grid831" />
  </sodipodi:namedview>
  <g
     inkscape:groupmode="layer"
     id="layer2"
     inkscape:label="Icon">
    <g
       id="g3063">
      <path
         style="color:#000000;fill:#e0e0e0;stroke-linecap:round;stroke-linejoin:round;-inkscape-stroke:none"
         d="M 3.5,1 C 2.1236503,1 1,2.1236503 1,3.5 v 9 C 1,13.87635 2.1236503,15 3.5,15 h 9 c 1.37635,0 2.5,-1.12365 2.5,-2.5 v -9 C 15,2.1236503 13.87635,1 12.5,1 Z m 0,1 h 9 C 13.339648,2 14,2.660352 14,3.5 v 9 c 0,0.839648 -0.660352,1.5 -1.5,1.5 h -9 C 2.660352,14 2,13.339648 2,12.5 v -9 C 2,2.660352 2.660352,2 3.5,2 Z"
         id="rect1911" />
      <path
         id="path2084"
         style="color:#000000;fill:#e0e0e0;fill-rule:evenodd;stroke-linecap:round;-inkscape-stroke:none"
         d="M 8 4 A 1 1 0 0 0 7 5 L 7 7 L 5 7 A 1 1 0 0 0 4 8 A 1 1 0 0 0 5 9 L 7 9 L 7 11 A 1 1 0 0 0 8 12 A 1 1 0 0 0 9 11 L 9 9 L 11 9 A 1 1 0 0 0 12 8 A 1 1 0 0 0 11 7 L 9 7 L 9 5 A 1 1 0 0 0 8 4 z " />
    </g>
  </g>
</svg>
