<?xml version="1.0" encoding="UTF-8" standalone="no"?>
<svg
   height="16"
   viewBox="0 0 16 16"
   width="16"
   version="1.1"
   id="svg10"
   sodipodi:docname="duplicate.svg"
   inkscape:version="1.1.1 (3bf5ae0d25, 2021-09-20)"
   xmlns:inkscape="http://www.inkscape.org/namespaces/inkscape"
   xmlns:sodipodi="http://sodipodi.sourceforge.net/DTD/sodipodi-0.dtd"
   xmlns="http://www.w3.org/2000/svg"
   xmlns:svg="http://www.w3.org/2000/svg">
  <defs
     id="defs14" />
  <sodipodi:namedview
     id="namedview12"
     pagecolor="#ffffff"
     bordercolor="#666666"
     borderopacity="1.0"
     inkscape:pageshadow="2"
     inkscape:pageopacity="0.0"
     inkscape:pagecheckerboard="0"
     showgrid="true"
     inkscape:snap-global="true"
     inkscape:zoom="58.0625"
     inkscape:cx="8"
     inkscape:cy="8"
     inkscape:window-width="1920"
     inkscape:window-height="1137"
     inkscape:window-x="-8"
     inkscape:window-y="-8"
     inkscape:window-maximized="1"
     inkscape:current-layer="layer2"
     inkscape:object-nodes="true"
     inkscape:snap-bbox="true"
     inkscape:bbox-paths="false"
     inkscape:snap-nodes="false"
     inkscape:bbox-nodes="true">
    <inkscape:grid
       type="xygrid"
       id="grid831" />
  </sodipodi:namedview>
  <g
     inkscape:groupmode="layer"
     id="layer2"
     inkscape:label="Icon">
    <path
       id="rect823"
       d="m 2.90892,0.99937996 c -1.04654,0 -1.90892001,0.86231364 -1.90892001,1.90875094 v 7.6350141 c 0,1.046437 0.86238001,1.908751 1.90892001,1.908751 h 0.6350701 v 0.636243 c 0,1.046448 0.86486,1.911241 1.9114,1.911241 H 13.08859 C 14.135131,14.99938 15,14.134587 15,13.088139 V 5.4556153 C 15,4.409178 14.135131,3.5443846 13.08859,3.5443846 H 12.453531 V 2.9081309 c 0,-1.0464373 -0.862391,-1.90875094 -1.90892,-1.90875094 z m 0,1.27249734 h 7.635691 c 0.363479,0 0.636299,0.2728058 0.636299,0.6362536 V 3.5443846 H 5.4553901 c -1.04654,0 -1.9114,0.8647934 -1.9114,1.9112307 V 11.179388 H 2.90892 c -0.36349,0 -0.6363099,-0.272776 -0.6363099,-0.636243 V 2.9081309 c 0,-0.3634478 0.2728199,-0.6362536 0.6363099,-0.6362536 z M 5.4553901,4.8168819 H 13.08859 c 0.36353,0 0.638801,0.2752356 0.638801,0.6387334 v 7.6325237 c 0,0.363478 -0.275271,0.638744 -0.638801,0.638744 H 5.4553901 c -0.36352,0 -0.6387899,-0.275266 -0.6387899,-0.638744 V 5.4556153 c 0,-0.3634978 0.2752699,-0.6387334 0.6387899,-0.6387334 z"
       fill-rule="evenodd"
       font-variant-ligatures="normal"
       font-variant-position="normal"
       font-variant-caps="normal"
       font-variant-numeric="normal"
       font-variant-alternates="normal"
       font-feature-settings="normal"
       text-indent="0"
       text-align="start"
       text-decoration-line="none"
       text-decoration-style="solid"
       text-decoration-color="#000000"
       text-transform="none"
       text-orientation="mixed"
       white-space="normal"
       shape-padding="0"
       isolation="auto"
       mix-blend-mode="normal"
       solid-color="#000000"
       solid-opacity="1"
       vector-effect="none"
       paint-order="stroke fill markers"
       style="stroke-width:21.3669;fill:#e0e0e0;fill-opacity:1" />
  </g>
</svg>
