<?xml version="1.0" encoding="UTF-8" standalone="no"?>
<svg
   height="16"
   viewBox="0 0 16 16"
   width="16"
   version="1.1"
   id="svg10"
   sodipodi:docname="filter.svg"
   inkscape:version="1.1.1 (3bf5ae0d25, 2021-09-20)"
   xmlns:inkscape="http://www.inkscape.org/namespaces/inkscape"
   xmlns:sodipodi="http://sodipodi.sourceforge.net/DTD/sodipodi-0.dtd"
   xmlns="http://www.w3.org/2000/svg"
   xmlns:svg="http://www.w3.org/2000/svg">
  <defs
     id="defs14" />
  <sodipodi:namedview
     id="namedview12"
     pagecolor="#ffffff"
     bordercolor="#666666"
     borderopacity="1.0"
     inkscape:pageshadow="2"
     inkscape:pageopacity="0.0"
     inkscape:pagecheckerboard="0"
     showgrid="true"
     inkscape:snap-global="true"
     inkscape:zoom="58.0625"
     inkscape:cx="8"
     inkscape:cy="8"
     inkscape:window-width="1920"
     inkscape:window-height="1137"
     inkscape:window-x="-8"
     inkscape:window-y="-8"
     inkscape:window-maximized="1"
     inkscape:current-layer="layer2"
     inkscape:object-nodes="true"
     inkscape:snap-bbox="true"
     inkscape:bbox-paths="false"
     inkscape:snap-nodes="false"
     inkscape:bbox-nodes="true">
    <inkscape:grid
       type="xygrid"
       id="grid831" />
  </sodipodi:namedview>
  <g
     inkscape:groupmode="layer"
     id="layer2"
     inkscape:label="Icon">
    <g
       id="g5209">
      <path
         id="path4770"
         style="color:#000000;fill:#e0e0e0;fill-rule:evenodd;stroke-linecap:round;-inkscape-stroke:none"
         d="M 3 1 A 1 1 0 0 0 2 2 L 2 4.2734375 A 2 2 0 0 0 1 6 A 2 2 0 0 0 2 7.7265625 L 2 14 A 1 1 0 0 0 3 15 A 1 1 0 0 0 4 14 L 4 7.7265625 A 2 2 0 0 0 5 6 A 2 2 0 0 0 4 4.2695312 L 4 2 A 1 1 0 0 0 3 1 z M 3 5 A 1 1 0 0 1 4 6 A 1 1 0 0 1 3 7 A 1 1 0 0 1 2 6 A 1 1 0 0 1 3 5 z " />
      <path
         id="path5202"
         style="color:#000000;fill:#e0e0e0;fill-rule:evenodd;stroke-linecap:round;-inkscape-stroke:none"
         d="M 13,1 A 1,1 0 0 0 12,2 V 4.2734375 A 2,2 0 0 0 11,6 2,2 0 0 0 12,7.7265625 V 14 a 1,1 0 0 0 1,1 1,1 0 0 0 1,-1 V 7.7265625 A 2,2 0 0 0 15,6 2,2 0 0 0 14,4.2695312 V 2 A 1,1 0 0 0 13,1 Z m 0,4 a 1,1 0 0 1 1,1 1,1 0 0 1 -1,1 1,1 0 0 1 -1,-1 1,1 0 0 1 1,-1 z" />
      <path
         id="path5204"
         style="color:#000000;fill:#e0e0e0;fill-rule:evenodd;stroke-linecap:round;-inkscape-stroke:none"
         d="M 8,15 A 1,-1 0 0 1 7,14 V 11.726563 A 2,-2 0 0 1 6,10 2,-2 0 0 1 7,8.2734375 V 2 A 1,-1 0 0 1 8,1 1,-1 0 0 1 9,2 V 8.2734375 A 2,-2 0 0 1 10,10 2,-2 0 0 1 9,11.730469 V 14 A 1,-1 0 0 1 8,15 Z M 8,11 A 1,-1 0 0 0 9,10 1,-1 0 0 0 8,9 1,-1 0 0 0 7,10 1,-1 0 0 0 8,11 Z" />
    </g>
  </g>
</svg>
